<?xml version="1.0" encoding="utf-8"?>
<!-- Generator: Adobe Illustrator 17.1.0, SVG Export Plug-In . SVG Version: 6.00 Build 0)  -->
<!DOCTYPE svg PUBLIC "-//W3C//DTD SVG 1.1//EN" "http://www.w3.org/Graphics/SVG/1.1/DTD/svg11.dtd">
<svg version="1.1" id="Layer_1" xmlns="http://www.w3.org/2000/svg" xmlns:xlink="http://www.w3.org/1999/xlink" x="0px" y="0px"
	 viewBox="0 0 20 20" enable-background="new 0 0 20 20" xml:space="preserve">
<g>
	<path fill="#FFFFFF" d="M13.7,5.2c0.3,0.3,0.7,0.3,0.9,0c0.1-0.1,0.2-0.3,0.2-0.5c0-0.2-0.1-0.3-0.2-0.5l-4.1-4
		c-0.3-0.3-0.7-0.3-0.9,0l-4.1,4C5.1,4.6,5.1,5,5.4,5.2c0.3,0.3,0.7,0.3,0.9,0l3-2.9v12.1c0,0.4,0.3,0.6,0.7,0.6
		c0.4,0,0.7-0.3,0.7-0.6V2.3L13.7,5.2z M13.7,5.2"/>
	<path fill="#FFFFFF" d="M19,9.2c-0.5,0-1,0.4-1,1v7.9h-8H2v-7.9c0-0.5-0.4-1-1-1c-0.5,0-1,0.4-1,1V19c0,0.5,0.4,1,1,1h9h9
		c0.5,0,1-0.4,1-1v-8.9C20,9.7,19.6,9.2,19,9.2z"/>
</g>
</svg>
