<?xml version="1.0" encoding="utf-8"?>
<!-- Generator: Adobe Illustrator 19.0.0, SVG Export Plug-In . SVG Version: 6.00 Build 0)  -->
<svg version="1.1" id="Layer_1" xmlns="http://www.w3.org/2000/svg" xmlns:xlink="http://www.w3.org/1999/xlink" x="0px" y="0px"
	 viewBox="0 0 136.9 136.9" style="enable-background:new 0 0 136.9 136.9;" xml:space="preserve">
<g style='fill:#f7941e;'>
	<g id="XMLID_146_">
		<path id="XMLID_147_" d="M46,57.6h-5.6V45.5h-5.8v17H46V57.6z M49,60.5c0.8,0.8,1.8,1.4,3,1.8c1.2,0.4,2.4,0.6,3.7,0.6
			c1.3,0,2.6-0.2,3.7-0.6c1.2-0.4,2.2-1,3-1.8c0.8-0.8,1.5-1.7,2-2.9c0.5-1.1,0.7-2.4,0.7-3.7c0-1.4-0.2-2.6-0.7-3.7
			c-0.5-1.1-1.1-2-2-2.8c-0.8-0.8-1.8-1.4-3-1.8c-1.2-0.4-2.4-0.6-3.7-0.6c-1.3,0-2.6,0.2-3.7,0.6c-1.2,0.4-2.1,1-3,1.8
			c-0.8,0.8-1.5,1.7-2,2.8c-0.5,1.1-0.7,2.3-0.7,3.7c0,1.4,0.2,2.6,0.7,3.7C47.5,58.8,48.1,59.7,49,60.5z M52.6,52.4
			c0.2-0.5,0.4-0.8,0.7-1.2c0.3-0.3,0.7-0.6,1.1-0.7c0.4-0.2,0.9-0.3,1.3-0.3c0.5,0,0.9,0.1,1.3,0.3c0.4,0.2,0.8,0.4,1.1,0.7
			c0.3,0.3,0.5,0.7,0.7,1.2s0.3,1,0.3,1.5c0,0.6-0.1,1.1-0.3,1.5c-0.2,0.5-0.4,0.9-0.7,1.2c-0.3,0.3-0.7,0.6-1.1,0.8
			c-0.4,0.2-0.9,0.3-1.3,0.3c-0.5,0-0.9-0.1-1.3-0.3c-0.4-0.2-0.8-0.4-1.1-0.8c-0.3-0.3-0.5-0.7-0.7-1.2c-0.2-0.5-0.3-1-0.3-1.5
			C52.3,53.4,52.4,52.9,52.6,52.4z M72,60h5.4l0.9,2.5h6.2l-6.6-17h-6.1l-6.7,17h6L72,60z M74.8,51.5l1.4,4.2h-2.8L74.8,51.5z
			 M99.3,60.5c0.9-0.7,1.6-1.6,2.1-2.7c0.5-1.1,0.8-2.4,0.8-3.9c0-1.6-0.3-3-0.8-4.1c-0.6-1.1-1.3-1.9-2.2-2.6s-2-1.1-3.2-1.4
			c-1.2-0.3-2.5-0.4-3.9-0.4h-6.3v17h6.8c1.3,0,2.5-0.2,3.6-0.5C97.4,61.7,98.4,61.2,99.3,60.5z M92.3,57.6h-1.1v-7.2h1.3
			c1.2,0,2.2,0.3,2.9,0.9c0.7,0.6,1.1,1.5,1.1,2.6c0,1.3-0.4,2.3-1.1,2.9C94.7,57.3,93.6,57.6,92.3,57.6z M42.1,83.5H42l-3.1-9.1
			h-7.5v17h5.3l-0.3-9.6h0.1l3.1,9.6h4l3.2-9.6l0.1,0l-0.2,9.6h5.6v-17h-7.7L42.1,83.5z M71.1,76.3c-0.8-0.8-1.8-1.4-3-1.8
			c-1.2-0.4-2.4-0.6-3.7-0.6s-2.6,0.2-3.7,0.6c-1.2,0.4-2.1,1-3,1.8c-0.8,0.8-1.5,1.7-2,2.8c-0.5,1.1-0.7,2.3-0.7,3.7
			c0,1.4,0.2,2.6,0.7,3.7c0.5,1.1,1.1,2.1,2,2.9c0.8,0.8,1.8,1.4,3,1.8s2.4,0.6,3.7,0.6s2.6-0.2,3.7-0.6c1.2-0.4,2.2-1,3-1.8
			c0.8-0.8,1.5-1.7,2-2.9c0.5-1.1,0.7-2.4,0.7-3.7c0-1.4-0.2-2.6-0.7-3.7C72.6,78,71.9,77,71.1,76.3z M67.4,84.3
			c-0.2,0.5-0.4,0.9-0.7,1.2c-0.3,0.3-0.7,0.6-1.1,0.8c-0.4,0.2-0.9,0.3-1.3,0.3c-0.5,0-0.9-0.1-1.3-0.3c-0.4-0.2-0.8-0.4-1.1-0.8
			c-0.3-0.3-0.5-0.7-0.7-1.2c-0.2-0.5-0.3-1-0.3-1.5c0-0.5,0.1-1,0.3-1.5c0.2-0.5,0.4-0.8,0.7-1.2c0.3-0.3,0.7-0.6,1.1-0.7
			c0.4-0.2,0.9-0.3,1.3-0.3c0.5,0,0.9,0.1,1.3,0.3c0.4,0.2,0.8,0.4,1.1,0.7c0.3,0.3,0.5,0.7,0.7,1.2c0.2,0.5,0.3,1,0.3,1.5
			C67.7,83.3,67.6,83.8,67.4,84.3z M89.6,82.6c0.5-0.8,0.8-1.7,0.8-2.7c0-1.1-0.2-2-0.6-2.7c-0.4-0.7-0.9-1.3-1.6-1.7
			c-0.6-0.4-1.4-0.7-2.2-0.9c-0.8-0.2-1.7-0.3-2.5-0.3h-7.3v17h5.5v-6.1h0.2l3.3,6.1h6.6l-4.3-6.9C88.3,84,89.1,83.4,89.6,82.6z
			 M84.6,80.8c-0.1,0.2-0.3,0.3-0.5,0.4c-0.2,0.1-0.4,0.2-0.6,0.2c-0.2,0-0.4,0-0.6,0h-1.1v-2.7H83c0.2,0,0.4,0,0.6,0
			c0.2,0,0.4,0.1,0.6,0.2c0.2,0.1,0.3,0.2,0.4,0.4c0.1,0.2,0.2,0.4,0.2,0.7C84.8,80.4,84.7,80.6,84.6,80.8z M98.7,86.6V85h5.9v-4.4
			h-5.9v-1.5h6.3v-4.8H93.3v17h12.1v-4.8H98.7z"/>
	</g>
</g>
<path  style='fill:#f7941e;'  id="XMLID_29_" d="M68.4,0C30.7,0,0,30.7,0,68.4s30.7,68.4,68.4,68.4s68.4-30.7,68.4-68.4S106.2,0,68.4,0z M68.4,126.9
	c-32.2,0-58.4-26.2-58.4-58.4S36.2,10,68.4,10c32.2,0,58.4,26.2,58.4,58.4S100.7,126.9,68.4,126.9z"/>
</svg>
