<?xml version="1.0" encoding="utf-8"?>
<!-- Generator: Adobe Illustrator 19.0.0, SVG Export Plug-In . SVG Version: 6.00 Build 0)  -->
<svg version="1.1" id="Layer_2" xmlns="http://www.w3.org/2000/svg" xmlns:xlink="http://www.w3.org/1999/xlink" x="0px" y="0px"
     viewBox="-208 206 582.9 582.9" style="enable-background:new -208 206 582.9 582.9;" xml:space="preserve">
<style type="text/css">
    .st0{fill:#333333}
</style>
<g>
    <g>
        <rect x="135.6" y="429.2" class="st0" width="34.7" height="141.3"/>
        <rect x="18.6" y="429.2" class="st0" width="34.7" height="141.3"/>
        <rect x="-34.6" y="482.6" class="st0" width="141.3" height="34.7"/>
        <path class="st0" d="M269.2,497.5h20.3c0,113.8-92.2,206-206,206s-205.9-92.2-206-206c0.1-113.8,92.2-206,206-206
            s206,92.2,206,206H269.2h-20.3c0-45.8-18.5-87-48.4-116.9c-30-30-71.2-48.4-116.9-48.4c-45.8,0-87,18.5-116.9,48.4
            c-30,30-48.4,71.2-48.4,116.9c0,45.8,18.5,87,48.4,116.9c30,30,71.2,48.4,116.9,48.4c45.8,0,87-18.5,116.9-48.4
            c30-30,48.4-71.2,48.4-116.9L269.2,497.5L269.2,497.5z"/>
    </g>
</g>
</svg>

