<?xml version="1.0" encoding="utf-8"?>
<!-- Generator: Adobe Illustrator 19.0.0, SVG Export Plug-In . SVG Version: 6.00 Build 0)  -->
<svg version="1.1"  id="Layer_1" xmlns="http://www.w3.org/2000/svg" xmlns:xlink="http://www.w3.org/1999/xlink" x="0px" y="0px"
	 viewBox="-375 361 212 279" style="enable-background:new -375 361 212 279;" xml:space="preserve">
<style type="text/css">
	.st0{fill:#024C9C;fill-opacity:0.06;}
</style>
<g>
	<path class="st0" d="M-314.3,613.3c7.6,0,13.7-6.1,13.7-13.7v-71.8c0-7.6-6.1-13.7-13.7-13.7c-7.6,0-13.7,6.1-13.7,13.7v71.8
		C-328.1,607.3-321.9,613.3-314.3,613.3z"/>
</g>
<g>
	<path class="st0" d="M-223.7,486.8c7.6,0,13.7-6.1,13.7-13.7v-71.8c0-7.6-6.1-13.7-13.7-13.7c-7.6,0-13.7,6.1-13.7,13.7v71.8
		C-237.4,480.8-231.3,486.8-223.7,486.8z"/>
</g>
<g>
	<path class="st0" d="M-259.6,577.5h22.2v22.2c0,7.6,6.1,13.7,13.7,13.7c7.6,0,13.7-6.1,13.7-13.7v-22.2h22.2
		c7.6,0,13.7-6.1,13.7-13.7c0-7.6-6.1-13.7-13.7-13.7H-210v-22.2c0-7.6-6.1-13.7-13.7-13.7c-7.6,0-13.7,6.1-13.7,13.7v22.2h-22.2
		c-7.6,0-13.7,6.1-13.7,13.7C-273.3,571.4-267.2,577.5-259.6,577.5z"/>
</g>
<g>
	<path class="st0" d="M-350.2,451h22.2v22.2c0,7.6,6.1,13.7,13.7,13.7c7.6,0,13.7-6.1,13.7-13.7V451h22.2c7.6,0,13.7-6.1,13.7-13.7
		c0-7.6-6.1-13.7-13.7-13.7h-22.2v-22.2c0-7.6-6.1-13.7-13.7-13.7c-7.6,0-13.7,6.1-13.7,13.7v22.2h-22.2c-7.6,0-13.7,6.1-13.7,13.7
		C-363.9,444.9-357.8,451-350.2,451z"/>
</g>
</svg>
