<?xml version="1.0" encoding="utf-8"?>
<!-- Generator: Adobe Illustrator 19.0.0, SVG Export Plug-In . SVG Version: 6.00 Build 0)  -->
<svg version="1.1" id="Layer_1" xmlns="http://www.w3.org/2000/svg" xmlns:xlink="http://www.w3.org/1999/xlink" x="0px" y="0px"
	 viewBox="0 0 79.1 67.8" style="enable-background:new 0 0 79.1 67.8;" xml:space="preserve">
<style type="text/css">
	.st0{fill-rule:evenodd;clip-rule:evenodd;}
</style>
<path style='fill : #fff' class="st0" d="M71.1,19.3c0-0.8,0-1.5-0.1-2.2c3.2-2.3,5.9-5.3,8.1-8.7c-2.9,1.3-6,2.2-9.3,2.5c3.4-2.1,5.9-5.4,7.1-9.3
	c-3.1,1.9-6.6,3.3-10.3,3.9c-3-3.4-7.2-5.5-11.8-5.6c-9-0.1-16.2,7.4-16.2,16.9c0,1.3,0.1,2.6,0.4,3.9C25.5,20,13.5,13,5.5,2.4
	C4.1,4.9,3.3,7.9,3.3,11c0,6,2.9,11.4,7.2,14.5c-2.7-0.1-5.2-0.9-7.4-2.3v0.2c0,8.4,5.6,15.4,13.1,17.1c-1.4,0.4-2.8,0.6-4.3,0.6
	c-1.1,0-2.1-0.1-3.1-0.4c2.1,6.9,8.1,11.9,15.2,12.1c-5.6,4.6-12.5,7.4-20.2,7.3c-1.3,0-2.6-0.1-3.9-0.3c7.2,5,15.7,7.8,24.9,7.8
	C54.7,67.8,71.1,41.9,71.1,19.3L71.1,19.3z M71.1,19.3"/>
</svg>
